<?xml version="1.0" encoding="utf-8"?>
<!-- Generator: Adobe Illustrator 21.0.0, SVG Export Plug-In . SVG Version: 6.00 Build 0)  -->
<svg version="1.1" id="Capa_1" xmlns="http://www.w3.org/2000/svg" xmlns:xlink="http://www.w3.org/1999/xlink" x="0px" y="0px"
	 width="212px" height="43px" viewBox="0 0 212 43" enable-background="new 0 0 212 43" xml:space="preserve">
<path fill="#E2231A" d="M35.7,27.5c0-8.1,5.9-15,15.7-15c9.9,0,15.8,6.8,15.8,15s-5.9,15-15.8,15C41.6,42.4,35.7,35.6,35.7,27.5z
	 M58.2,27.5c0-3.9-2.7-7.2-6.8-7.2c-4.1,0-6.7,3.3-6.7,7.2c0,4,2.6,7.2,6.7,7.2C55.5,34.7,58.2,31.5,58.2,27.5z"/>
<path fill="#E2231A" d="M94.2,33.3c0,6.7-5.8,9.1-12.8,9.1c-8.1,0-13.1-3.7-13.1-10.3h8.8c0,3,1.9,4.2,4.5,4.2
	c2.2,0,3.7-0.8,3.7-2.7c0-2.2-2.2-2.5-7.6-4.2C73,28,69,26.6,69,21.2c0-5.9,4.9-8.7,12.6-8.7c8.2,0,12.3,4.2,12.3,9.6h-8.9
	c0-2.4-1.2-3.7-3.7-3.7c-1.8,0-3.4,0.8-3.4,2.5c0,2.1,2.5,2.4,7.2,4C90,26.4,94.2,27.8,94.2,33.3z"/>
<path fill="#E2231A" d="M115.8,41.7c-1.4,0.2-3.4,0.5-6,0.5c-4.2,0-10.1-0.5-10.1-10V20h-4.5v-6.7h4.5V7.4l9-2.5v8.4h6.5V20h-6.5
	v10.1c0,4.2,1.6,4.8,3.9,4.8c1.1,0,2.4-0.1,3.2-0.2V41.7z"/>
<path fill="#E2231A" d="M148.3,3.6l9-3.2v41.2h-9V3.6z"/>
<path fill="#E2231A" d="M145.9,41.7h-9.6c-0.1-0.5-0.2-0.9-0.3-1.4c-0.1-0.5-0.2-1-0.2-1.5c-1.3,1.3-2.7,2.3-4.2,2.9
	c-1.5,0.6-3.1,0.9-4.9,0.9c-2.8,0-4.9-0.8-6.5-2.3c-1.6-1.5-2.4-3.6-2.4-6.1c0-2.4,0.6-4.3,1.9-5.8c1.3-1.5,3.2-2.5,5.7-3.1
	c1.4-0.3,3.2-0.7,5.3-1c3.2-0.5,4.8-1.3,4.8-2.3v-0.7c0-0.8-0.3-1.5-0.9-1.9c-0.6-0.4-1.6-0.6-2.8-0.6c-1.3,0-2.4,0.3-3.2,0.8
	c-0.8,0.5-1.3,1.3-1.5,2.4l-8.6,0c0.5-3.2,1.8-5.6,4-7.2c2.2-1.6,5.4-2.4,9.5-2.4c2.5,0,4.7,0.3,6.4,0.9c1.7,0.6,3.1,1.5,4.1,2.8
	c0.7,0.9,1.2,2,1.4,3.2c0.3,1.2,0.4,3.2,0.4,6v11.9c0,1.3,0.1,2.3,0.4,3.1C145.1,40.9,145.4,41.4,145.9,41.7L145.9,41.7z
	 M135.6,28.2c-0.7,0.5-2,0.9-3.8,1.3c-0.9,0.2-1.5,0.3-2,0.4c-1.1,0.3-1.9,0.7-2.4,1.2c-0.5,0.5-0.7,1.2-0.7,2c0,1,0.3,1.8,0.9,2.5
	c0.6,0.6,1.5,0.9,2.5,0.9c1.6,0,2.9-0.5,3.9-1.4c1-0.9,1.5-2.1,1.5-3.6V28.2z"/>
<path fill="#E2231A" d="M200.5,41.7h-9.6c-0.1-0.5-0.2-0.9-0.3-1.4c-0.1-0.5-0.2-1-0.2-1.5c-1.3,1.3-2.7,2.3-4.2,2.9
	c-1.5,0.6-3.1,0.9-4.9,0.9c-2.8,0-4.9-0.8-6.5-2.3c-1.6-1.5-2.4-3.6-2.4-6.1c0-2.4,0.6-4.3,1.9-5.8c1.3-1.5,3.2-2.5,5.7-3.1
	c1.4-0.3,3.2-0.7,5.3-1c3.2-0.5,4.8-1.3,4.8-2.3v-0.7c0-0.8-0.3-1.5-0.9-1.9c-0.6-0.4-1.5-0.6-2.8-0.6c-1.3,0-2.4,0.3-3.2,0.8
	c-0.8,0.5-1.3,1.3-1.5,2.4h-8.6c0.5-3.2,1.8-5.6,4-7.2c2.2-1.6,5.4-2.4,9.5-2.4c2.5,0,4.7,0.3,6.4,0.9c1.7,0.6,3.1,1.5,4.1,2.8
	c0.7,0.9,1.2,2,1.4,3.2c0.3,1.2,0.4,3.2,0.4,6v11.9c0,1.3,0.1,2.3,0.4,3.1C199.6,40.9,200,41.4,200.5,41.7L200.5,41.7z M190.1,28.2
	c-0.7,0.5-2,0.9-3.8,1.3c-0.9,0.2-1.5,0.3-2,0.4c-1.1,0.3-1.9,0.7-2.4,1.2c-0.5,0.5-0.7,1.2-0.7,2c0,1,0.3,1.8,0.9,2.5
	c0.6,0.6,1.5,0.9,2.5,0.9c1.6,0,2.9-0.5,3.9-1.4c1-0.9,1.5-2.1,1.5-3.6V28.2z"/>
<rect x="161.1" y="13.3" fill="#E2231A" width="9" height="28.4"/>
<rect x="203.4" y="33" fill="#0D2240" width="8.6" height="8.6"/>
<g>
	<path fill="#E2231A" d="M23.9,25.4H9.6v16.4H0V0.4h9.6v16.7h14.3V0.4h9.5v41.4h-9.5V25.4z"/>
</g>
<polygon fill="#0D2240" points="161.1,9.1 161.1,9.1 170.1,9.1 170.1,2.7 161.1,6 "/>
</svg>
